<svg xmlns="http://www.w3.org/2000/svg" id="logo_contrast_white_contrast" data-name="logo contrast white contrast" width="1000" height="300" viewBox="0 0 1000 300">
  <rect id="Rectangle_1" data-name="Rectangle 1" width="1000" height="300" fill="none"/>
  <path id="Path_1" data-name="Path 1" d="M281.25,149.54c0-24.85,17-42.53,39.54-42.53,12.72,0,21.35,4.87,26.73,11.62l.43-9.91h21.43v82H348l-.43-9.91c-5.38,6.84-14,11.62-26.73,11.62C298.24,192.42,281.25,174.4,281.25,149.54Zm43.81-23c-13.15,0-22,9.91-22,23s8.89,23.41,22,23.41,22.38-10.25,22.38-23.41-9.31-22.97-22.38-22.97Z" fill="#294364"/>
  <path id="Path_2" data-name="Path 2" d="M423.45,107c25.2,0,43.81,18.54,43.81,42.71s-18.61,42.7-43.81,42.7-43.81-18.45-43.81-42.7S398.34,107,423.45,107Zm0,65.6c12.9,0,22-9.74,22-22.89s-9.14-22.81-22-22.81-22,9.74-22,22.81,9.19,22.9,22,22.9Z" fill="#294364"/>
  <path id="Path_3" data-name="Path 3" d="M619.79,108.72h21.86V157c0,20.75-15.63,35.44-38.77,35.44s-38.35-14.52-38.35-34.93V108.72h22v46c0,10.41,6.75,17.5,16.4,17.5,10.16,0,16.91-7.09,16.91-17.5Z" fill="#294364"/>
  <path id="Path_4" data-name="Path 4" d="M725.73,121.53C731.54,112.82,742,107,754.17,107c18.79,0,32.2,12.22,32.2,32.2v51.5h-22V144.85c0-11.36-7-17.51-16.4-17.51s-18,5.89-18,17v46.37h-22V144.85c0-11.36-7.09-17.51-16.31-17.51-9.48,0-17.94,6.15-17.94,17.51v45.86H651.85v-82h20.84l.43,9.48c4.19-5.72,13.07-11.19,25.11-11.19C710.7,107,721,112.22,725.73,121.53Z" fill="#294364"/>
  <path id="Path_5" data-name="Path 5" d="M840.22,107c25.19,0,43.81,18.54,43.81,42.71s-18.62,42.7-43.81,42.7S796.4,174,796.4,149.72,815.11,107,840.22,107Zm0,65.6c12.89,0,22-9.74,22-22.89s-9.14-22.81-22-22.81-22,9.74-22,22.81,9.19,22.9,22,22.9Z" fill="#294364"/>
  <path id="Path_6" data-name="Path 6" d="M560.63,190.84H534.85l-19.71-28.08-15.86,21.92v5.96H477.42V108.71h21.86v42.95l4.07-5.71,11.81-16.53,14.87-20.85h24.34l-26.58,36.71Z" fill="#294364"/>
  <path id="Path_7" data-name="Path 7" d="M191.43,171.71A40,40,0,0,1,157.29,193a40,40,0,0,1,34.14-21.29Z" fill="#294364"/>
  <path id="Path_8" data-name="Path 8" d="M228,192.77h-.29a24.758,24.758,0,0,1-24.219-19.625A40.21,40.21,0,0,1,228,192.77Z" fill="#294364"/>
  <circle id="Ellipse_1" data-name="Ellipse 1" cx="15.3" cy="15.3" r="15.3" transform="translate(196.54 107.01)" fill="#294364"/>
  <path id="Path_9" data-name="Path 9" d="M228,192.77h-.29a24.758,24.758,0,0,1-24.219-19.625A40.21,40.21,0,0,1,228,192.77Z" fill="#294364"/>
  <path id="Path_10" data-name="Path 10" d="M252.46,168a24.758,24.758,0,0,1-19.631,24.218A56.13,56.13,0,0,0,203.38,163.44,24.75,24.75,0,0,1,252.46,168Z" fill="#294364"/>
  <path id="Path_11" data-name="Path 11" d="M191.43,171.71A40,40,0,0,1,157.29,193a40,40,0,0,1,34.14-21.29Z" fill="#294364"/>
  <path id="Path_12" data-name="Path 12" d="M196.09,153a40.45,40.45,0,0,1-.77,7.83,56,56,0,0,0-61.59,25.44A40.06,40.06,0,1,1,196.09,153Z" fill="#294364"/>
  <path id="Path_13" data-name="Path 13" d="M191.43,171.71A40,40,0,0,1,157.29,193a40,40,0,0,1,34.14-21.29Z" fill="#294364"/>
  <path id="Path_14" data-name="Path 14" d="M228,192.77h-.29a24.758,24.758,0,0,1-24.219-19.625A40.21,40.21,0,0,1,228,192.77Z" fill="#294364"/>
</svg>