<svg width="267" height="80" viewBox="0 0 267 80" fill="none" xmlns="http://www.w3.org/2000/svg">
<g clip-path="url(#clip0_1025_2121)">
<path d="M75.0938 39.8775C75.0938 33.2508 79.6328 28.5361 85.6509 28.5361C89.0472 28.5361 91.3514 29.8348 92.7878 31.6348L92.9027 28.9921H98.6245V50.8588H92.916L92.8012 48.2161C91.3647 50.0401 89.0632 51.3148 85.6643 51.3148C79.6301 51.3121 75.0938 46.5068 75.0938 39.8775ZM86.791 33.7441C83.28 33.7441 80.917 36.3868 80.917 39.8775C80.917 43.3681 83.2907 46.1201 86.791 46.1201C90.2914 46.1201 92.7665 43.3868 92.7665 39.8775C92.7665 36.3681 90.2807 33.7521 86.791 33.7521V33.7441Z" fill="white"/>
<path d="M113.061 28.5332C119.789 28.5332 124.758 33.4772 124.758 39.9225C124.758 46.3679 119.789 51.3092 113.061 51.3092C106.333 51.3092 101.364 46.3892 101.364 39.9225C101.364 33.4559 106.357 28.5332 113.061 28.5332ZM113.061 46.0265C116.505 46.0265 118.935 43.4292 118.935 39.9225C118.935 36.4159 116.495 33.8399 113.061 33.8399C109.627 33.8399 107.187 36.4372 107.187 39.9225C107.187 43.4079 109.641 46.0292 113.061 46.0292V46.0265Z" fill="white"/>
<path d="M165.484 28.9922H171.321V41.8669C171.321 47.4002 167.147 51.3175 160.969 51.3175C154.791 51.3175 150.729 47.4455 150.729 42.0029V28.9922H156.603V41.2589C156.603 44.0349 158.406 45.9255 160.982 45.9255C163.695 45.9255 165.497 44.0349 165.497 41.2589L165.484 28.9922Z" fill="white"/>
<path d="M193.77 32.4079C195.321 30.0852 198.114 28.5332 201.363 28.5332C206.38 28.5332 209.961 31.7919 209.961 37.1199V50.8532H204.087V38.6265C204.087 35.5972 202.218 33.9572 199.708 33.9572C197.198 33.9572 194.902 35.5279 194.902 38.4905V50.8559H189.028V38.6265C189.028 35.5972 187.135 33.9572 184.673 33.9572C182.142 33.9572 179.883 35.5972 179.883 38.6265V50.8559H174.044V28.9892H179.608L179.723 31.5172C180.842 29.9919 183.213 28.5332 186.427 28.5332C189.757 28.5332 192.507 29.9252 193.77 32.4079Z" fill="white"/>
<path d="M224.339 28.5332C231.064 28.5332 236.036 33.4772 236.036 39.9225C236.036 46.3679 231.064 51.3092 224.339 51.3092C217.613 51.3092 212.639 46.3999 212.639 39.9252C212.639 33.4505 217.634 28.5332 224.339 28.5332ZM224.339 46.0265C227.78 46.0265 230.213 43.4292 230.213 39.9225C230.213 36.4159 227.772 33.8399 224.339 33.8399C220.905 33.8399 218.465 36.4372 218.465 39.9225C218.465 43.4079 220.918 46.0292 224.339 46.0292V46.0265Z" fill="white"/>
<path d="M149.688 50.8908H142.805L137.542 43.4028L133.308 49.2481V50.8375H127.471V28.9895H133.308V40.4428L134.394 38.9201L137.548 34.5121L141.518 28.9521H148.017L140.92 38.7415L149.688 50.8908Z" fill="white"/>
<path d="M51.112 45.7896C50.2302 47.4558 48.9222 48.8589 47.321 49.8562C45.7198 50.8534 43.8827 51.4092 41.9966 51.4669C42.8783 49.8007 44.1864 48.3975 45.7875 47.4002C47.3887 46.403 49.2258 45.8472 51.112 45.7896Z" fill="white"/>
<path d="M60.8759 51.4052H60.7985C59.2834 51.4051 57.8143 50.8852 56.6371 49.9326C55.4599 48.9799 54.6462 47.6522 54.332 46.1719C55.7185 46.5612 57.0123 47.2252 58.1366 48.1243C59.2608 49.0233 60.1924 50.1391 60.8759 51.4052Z" fill="white"/>
<path d="M56.5612 36.6961C58.8173 36.6961 60.6463 34.8695 60.6463 32.6161C60.6463 30.3628 58.8173 28.5361 56.5612 28.5361C54.305 28.5361 52.4761 30.3628 52.4761 32.6161C52.4761 34.8695 54.305 36.6961 56.5612 36.6961Z" fill="white"/>
<path d="M60.8759 51.4052H60.7985C59.2834 51.4051 57.8143 50.8852 56.6371 49.9326C55.4599 48.9799 54.6462 47.6522 54.332 46.1719C55.7185 46.5612 57.0123 47.2252 58.1366 48.1243C59.2608 49.0233 60.1924 50.1391 60.8759 51.4052Z" fill="white"/>
<path d="M67.4066 44.8001C67.4064 46.3135 66.8856 47.7809 65.9314 48.9566C64.9772 50.1323 63.6476 50.9449 62.1651 51.2583C60.6121 47.7978 57.8019 45.055 54.3022 43.5841C54.6045 41.9664 55.501 40.5198 56.8158 39.5281C58.1307 38.5363 59.7691 38.0709 61.4097 38.2231C63.0503 38.3754 64.5748 39.1343 65.6842 40.351C66.7936 41.5677 67.4079 43.1545 67.4066 44.8001Z" fill="white"/>
<path d="M51.112 45.7896C50.2302 47.4558 48.9222 48.8589 47.321 49.8562C45.7198 50.8534 43.8827 51.4092 41.9966 51.4669C42.8783 49.8007 44.1864 48.3975 45.7875 47.4002C47.3887 46.403 49.2258 45.8472 51.112 45.7896Z" fill="white"/>
<path d="M52.3559 40.7999C52.3555 41.5009 52.2866 42.2002 52.1503 42.8879C49.0433 42.1103 45.7683 42.3498 42.8078 43.5711C39.8473 44.7924 37.3577 46.931 35.7058 49.6719C34.1711 48.6448 32.9289 47.2382 32.1003 45.5892C31.2716 43.9401 30.8847 42.1048 30.9773 40.2621C31.0699 38.4193 31.6388 36.6319 32.6285 35.074C33.6183 33.5161 34.9952 32.2407 36.6251 31.3722C38.2551 30.5037 40.0824 30.0717 41.9292 30.1181C43.776 30.1646 45.5793 30.688 47.1634 31.6374C48.7474 32.5867 50.0583 33.9297 50.9683 35.5354C51.8783 37.1411 52.3563 38.9548 52.3559 40.7999Z" fill="white"/>
<path d="M51.112 45.7896C50.2302 47.4558 48.9222 48.8589 47.321 49.8562C45.7198 50.8534 43.8827 51.4092 41.9966 51.4669C42.8783 49.8007 44.1864 48.3975 45.7875 47.4002C47.3887 46.403 49.2258 45.8472 51.112 45.7896Z" fill="white"/>
<path d="M60.8759 51.4052H60.7985C59.2834 51.4051 57.8143 50.8852 56.6371 49.9326C55.4599 48.9799 54.6462 47.6522 54.332 46.1719C55.7185 46.5612 57.0123 47.2252 58.1366 48.1243C59.2608 49.0233 60.1924 50.1391 60.8759 51.4052Z" fill="white"/>
</g>
<defs>
<clipPath id="clip0_1025_2121">
<rect width="267" height="80" fill="white"/>
</clipPath>
</defs>
</svg>
